<svg width="391" height="252" viewBox="0 0 391 252" fill="none" xmlns="http://www.w3.org/2000/svg">
<path d="M273.344 77.112C269.003 77.112 265.456 73.5854 265.456 69.2187C265.456 64.8707 269.003 61.332 273.344 61.332C277.709 61.332 281.231 64.8707 281.231 69.2187C281.231 73.5854 277.709 77.112 273.344 77.112ZM247.923 8.64669L165.588 139.275H208.495C208.495 139.275 240.815 108.976 244.737 106.449C251.469 108.253 270.493 113.623 287.016 113.623C296.609 113.623 305.352 111.82 310.365 106.449C315.967 100.452 321.665 91.604 325.667 84.0933L325.673 84.112L325.752 83.9307C326.664 82.204 327.685 80.2747 328.224 79.0133C335.027 63.0387 336.476 36.2947 318.136 19.2987C322.701 35.9573 312.525 55.6347 301.853 63.3667C301.04 62.8854 300.223 62.4027 299.4 61.9107C303.3 55.788 304.62 48.056 301.853 37.5574C298.315 43.9787 291.66 49.156 283.639 52.4814C274.543 47.0147 266.779 42.2814 263.648 40.22L255.236 34.8773L252.648 23.7733L247.923 8.64669" fill="white"/>
<path d="M356.679 214.817L357.305 210.884C358.212 205.272 361.985 202.177 367.925 202.177C370.88 202.177 372.923 202.89 374.176 204.366C375.859 206.352 375.637 209.235 375.313 211.229L374.732 214.817H356.679ZM370.095 190.205C353.3 190.205 343.509 198.128 341.003 213.756L338.704 228.083C337.489 235.64 338.527 241.425 341.824 245.28C345.424 249.503 351.859 251.644 360.999 251.644C369.524 251.644 378.225 249.773 383.472 248.076L383.08 236.739C377.667 238.127 370.659 239.035 365.123 239.035C359.912 239.035 357.141 238.282 355.56 236.432C354.183 234.821 353.839 232.489 354.415 228.853L354.863 226.155H387.751L389.651 214.276C391.029 205.735 390.103 199.711 386.8 195.833C383.615 192.104 377.995 190.205 370.095 190.205" fill="white"/>
<path d="M247.751 239.796C245.6 239.796 244.188 239.324 243.305 238.282C242.439 237.26 242.188 235.815 242.516 233.741C243.237 229.325 245.909 228.429 249.717 228.429H259.693L258.248 237.328L257.68 237.559C254.527 238.899 251.625 239.796 247.751 239.796V239.796ZM257.101 190.205C250.499 190.205 241.707 191.343 235.763 192.941L235.941 204.347C241.787 203.285 246.825 202.804 251.699 202.804C257.223 202.804 259.936 203.48 261.409 205.205C262.824 206.864 262.784 209.129 262.24 212.501L261.343 218.075H247.229C234.943 218.075 229.181 222.789 227.34 234.329C226.372 240.355 227.185 245.088 229.688 248.019C231.741 250.429 234.943 251.644 239.209 251.644C241.575 251.644 248.059 251.153 256.983 246.611L258.327 245.927L259.059 250.382H271.976L278.123 212.272C279.535 203.421 279.008 198.312 276.333 195.178C273.393 191.728 267.471 190.205 257.101 190.205" fill="white"/>
<path d="M291.981 191.457L290.131 203.055H316.448L284.356 238.185L282.393 250.39H327.241L329.108 238.794H301.777L334 203.653L335.951 191.457H291.981" fill="white"/>
<path d="M23.7031 210.285L28.0224 183.475H43.9046C48.284 183.475 50.9253 184.275 52.4413 186.059C53.832 187.688 54.196 189.994 53.6253 193.541L52.5573 200.192C51.3693 207.557 47.944 210.285 39.938 210.285H23.7031ZM47.5787 168.987H4.34945L1.27398 183.475H11.4166L0.661987 250.39H17.2636L21.4287 224.4H34.0735L48.3533 250.39H68.1893L52.8707 222.297L54.0306 221.835C62.396 218.577 67.2586 211.992 68.9026 201.724L70.552 191.439C71.74 183.995 70.86 178.656 67.8346 175.116C64.3106 170.981 57.6907 168.987 47.5787 168.987Z" fill="white"/>
<path d="M95.4346 214.817L96.0453 210.884C96.964 205.272 100.741 202.177 106.695 202.177C109.635 202.177 111.679 202.89 112.936 204.366C114.619 206.361 114.392 209.235 114.067 211.229L113.496 214.817H95.4346ZM108.848 190.205C92.048 190.205 82.264 198.128 79.7493 213.766L77.4613 228.083C76.24 235.64 77.2906 241.425 80.572 245.28C84.1586 249.503 90.6106 251.644 99.7386 251.644C108.273 251.644 116.98 249.773 122.205 248.076L121.831 236.739C116.401 238.127 109.389 239.035 103.884 239.035C98.668 239.035 95.8866 238.282 94.304 236.432C92.9426 234.812 92.58 232.489 93.164 228.844L93.608 226.155H126.496L128.4 214.276C129.775 205.725 128.845 199.711 125.549 195.833C122.369 192.104 116.743 190.205 108.848 190.205" fill="white"/>
<path d="M162.113 0.297329L152.044 33.4987L141.973 0.297329L99.0893 19.2307V19.404C99.0893 58.3427 115.476 99.3067 152.044 109.293C188.635 99.3067 205.013 58.3427 205.013 19.404L204.993 19.2307L162.113 0.297329" fill="white"/>
<path d="M81.6213 50.0227H53.4827C57.228 60.9947 76.1813 68.292 76.1813 68.292L66.72 139.275H104.164C104.164 139.275 115.476 122.511 122.167 112.148L81.6213 50.0227Z" fill="white"/>
<path d="M210.167 166.344L196.641 250.39H212.499L226 166.344H210.167Z" fill="white"/>
<path d="M177.763 190.205C172.172 190.205 166.448 191.294 160.273 193.521L158.512 194.157L162.991 166.344H147.129L133.723 249.823C142.179 251.171 151.457 251.644 157.001 251.644C180.671 251.644 186.951 242.159 189.415 226.828L191.952 211.019C193.196 203.344 192.363 197.763 189.5 194.417C187.125 191.611 183.183 190.205 177.763 190.205V190.205ZM176.044 211.492L173.503 227.321C172.588 232.941 170.357 238.157 160.141 238.157C157.664 238.157 155.328 238.157 152.672 237.905L151.493 237.79L156.384 207.413L156.917 207.182C160.265 205.571 165.168 203.672 169.473 203.672C171.988 203.672 173.829 204.347 174.948 205.649C176.095 207.007 176.452 208.908 176.044 211.492" fill="white"/>
</svg>
