<svg id="Layer_1" data-name="Layer 1" xmlns="http://www.w3.org/2000/svg" viewBox="0 0 56.51 39.46"><defs><style>.cls-1,.cls-4,.cls-5{fill:none;}.cls-1{stroke:#3566e7;stroke-width:1.97px;}.cls-1,.cls-4{stroke-linecap:round;stroke-linejoin:round;}.cls-2{fill:#22cefa;}.cls-3{fill:#fff;}.cls-4{stroke:#fff;stroke-width:0.91px;}.cls-5{stroke:#22cefa;stroke-miterlimit:10;stroke-width:1.97px;}</style></defs><title>locked</title><path class="cls-1" d="M11.08,35.86a10.09,10.09,0,0,1,0-20.18h.22a17.44,17.44,0,0,1,33.68-3A11.62,11.62,0,0,1,43.9,35.86Z"/><path class="cls-1" d="M11.08,15.68a10,10,0,0,1,6.61,2.46"/><path class="cls-1" d="M45.06,12.67c-.41,0-1.16-.06-1.16-.06A11.59,11.59,0,0,0,37,14.91"/><path class="cls-2" d="M24.09,21.35l-.85.06a2.89,2.89,0,0,0-2.18,1.11h0l-.15.21h0l-.12.22v0a2,2,0,0,0-.1.21s0,0,0,.05-.05.14-.07.2a.29.29,0,0,0,0,.09,1.21,1.21,0,0,0-.05.18s0,.09,0,.14a.78.78,0,0,1,0,.14,2.62,2.62,0,0,0,0,.28V36.57a2.88,2.88,0,0,0,2.88,2.89H38.87a2.88,2.88,0,0,0,2.88-2.89V24.29a2.62,2.62,0,0,0,0-.28c0-.05,0-.1,0-.14s0-.1,0-.14a1.21,1.21,0,0,0-.05-.18.29.29,0,0,0,0-.09c0-.06,0-.13-.07-.2s0,0,0-.05a2,2,0,0,0-.1-.21v0l-.12-.22h0l-.15-.21h0A2.89,2.89,0,0,0,39,21.41l-.85-.06h-.79m-.68,0-11.76,0h-.11"/><circle class="cls-3" cx="31.1" cy="30.27" r="1.79"/><line class="cls-4" x1="31.1" y1="30.27" x2="31.1" y2="34.39"/><path class="cls-5" d="M25.16,16.78a5.94,5.94,0,1,1,11.88,0V22.4l-11.76.05h-.12Z"/></svg>