<?xml version="1.0" encoding="utf-8"?>
<!-- Generator: Adobe Illustrator 21.1.0, SVG Export Plug-In . SVG Version: 6.00 Build 0)  -->
<svg version="1.1" id="Layer_1" xmlns="http://www.w3.org/2000/svg" xmlns:xlink="http://www.w3.org/1999/xlink" x="0px" y="0px"
	 viewBox="0 0 595.3 458.7" style="enable-background:new 0 0 595.3 458.7;" xml:space="preserve">
<style type="text/css">
	.st0{fill:none;stroke:#C4C2CB;stroke-width:2;stroke-linecap:round;stroke-linejoin:round;}
	.st1{fill:none;stroke:#1EB8C1;stroke-width:3;stroke-linecap:round;stroke-linejoin:round;}
	.st2{fill:#FFFFFF;stroke:#1EB8C1;stroke-width:3;}
	.st3{fill:none;stroke:#5B93FF;stroke-width:3;stroke-linecap:round;stroke-linejoin:round;}
	.st4{fill:#FFFFFF;stroke:#5B93FF;stroke-width:3;}
	.st5{fill:none;stroke:#F84F77;stroke-width:3;stroke-linecap:round;stroke-linejoin:round;}
	.st6{fill:#FFFFFF;stroke:#F84F77;stroke-width:3;}
	.st7{filter:url(#a5b5743a101dd8bfa);}
	.st8{fill:#FFFFFF;}
	.st9{fill:#24124D;}
	.st10{opacity:0.1;fill:#FBFAFC;enable-background:new    ;}
	.st11{fill:#1EB8C1;}
	.st12{fill:#5B93FF;}
	.st13{fill:#F84F77;}
</style>
<filter  filterUnits="objectBoundingBox" height="169.6%" id="a5b5743a101dd8bfa" width="154.2%" x="-27.1%" y="-29.5%">
	<feOffset  dy="6" in="SourceAlpha" result="shadowOffsetOuter1"></feOffset>
	<feGaussianBlur  in="shadowOffsetOuter1" result="shadowBlurOuter1" stdDeviation="12"></feGaussianBlur>
	<feColorMatrix  in="shadowBlurOuter1" values="0 0 0 0 0 0 0 0 0 0 0 0 0 0 0 0 0 0 0.6 0"></feColorMatrix>
</filter>
<g>
	<g transform="translate(16 16)">
		<path class="st0" d="M281.6,425.8V-2.8"/>
		<path class="st1" d="M7.8,282.9C52,196.6,97.6,153.4,144.7,153.4c70.7,0,78.9,55.1,136.9,76.6c38.7,14.4,84.3,1.7,136.9-37.9"/>
		<circle class="st2" cx="281.6" cy="229.3" r="8.2"/>
		<path class="st3" d="M7.8,344c46.6-103.3,92.3-154.9,136.9-154.9c67,0,93.8,77.3,136.9,114.6c28.8,24.9,108.1,25.9,238.1,3"/>
		<circle class="st4" cx="281.6" cy="305.2" r="8.2"/>
		<path class="st5" d="M7.8,378.2c48.6-76.9,94.3-115.3,136.9-115.3c64,0,73.7,90,136.9,110.9c42.2,13.9,121.5,11.4,238.1-7.4"/>
		<circle class="st6" cx="281.6" cy="373.7" r="8.2"/>
	</g>
	<g transform="translate(208 24)">
		<g class="st7">
			<path id="a5b5743a101dd8bfb_2_" d="M117.9,19h205.4c2.5,0,4.5,2,4.5,4.5v157.7c0,2.5-2,4.5-4.5,4.5H117.9c-2.5,0-4.5-2-4.5-4.5
				V23.4C113.5,21,115.5,19,117.9,19z"/>
		</g>
		<g>
			<path id="a5b5743a101dd8bfb_1_" class="st8" d="M117.9,19h205.4c2.5,0,4.5,2,4.5,4.5v157.7c0,2.5-2,4.5-4.5,4.5H117.9
				c-2.5,0-4.5-2-4.5-4.5V23.4C113.5,21,115.5,19,117.9,19z"/>
		</g>
		<path class="st9" d="M107.5,1.1h226.2c3.3,0,6,2.7,6,6v178.6c0,3.3-2.7,6-6,6H107.5c-3.3,0-6-2.7-6-6V7
			C101.5,3.8,104.2,1.1,107.5,1.1z"/>
		<path class="st10" d="M101.5,1.1h238.1v47.6H101.5V1.1z"/>
		<path class="st8" d="M123.1,30.9H121V18.3h2.6l3.8,9.2h0.2l3.8-9.2h2.6v12.6h-2.1V22h-0.1l-3.5,8.4h-1.6l-3.5-8.4h-0.1
			C123.1,22,123.1,30.9,123.1,30.9z M140.9,29.2c1.5,0,2.4-1.2,2.4-3.1c0-2-0.9-3.1-2.4-3.1c-1.5,0-2.4,1.2-2.4,3.1
			C138.6,28.1,139.4,29.2,140.9,29.2z M140.9,31c-2.9,0-4.6-1.9-4.6-5c0-3.1,1.8-5,4.6-5c2.8,0,4.6,1.9,4.6,5
			C145.5,29.2,143.8,31,140.9,31z M147.7,30.9v-9.5h2.1v1.5h0.1c0.5-1.1,1.6-1.7,3-1.7c2.1,0,3.3,1.3,3.3,3.6v6.2h-2.2v-5.7
			c0-1.5-0.7-2.2-2-2.2c-1.4,0-2.3,0.9-2.3,2.3v5.6H147.7z M162.3,31c-2.4,0-3.9-1.9-3.9-4.9c0-3,1.5-4.9,3.9-4.9
			c1.3,0,2.4,0.6,2.9,1.7h0.1v-5.2h2.2v13.2h-2.1v-1.5h-0.1C164.7,30.4,163.6,31,162.3,31L162.3,31z M163,23c-1.5,0-2.4,1.2-2.4,3.1
			c0,1.9,0.9,3.1,2.4,3.1c1.5,0,2.4-1.2,2.4-3.1C165.3,24.2,164.4,23,163,23z M173.5,29.3c1.3,0,2.3-0.8,2.3-2v-0.8l-2.2,0.1
			c-1.2,0.1-1.8,0.5-1.8,1.3C171.8,28.8,172.5,29.3,173.5,29.3L173.5,29.3z M172.8,31c-1.8,0-3.2-1.1-3.2-2.9c0-1.7,1.3-2.7,3.6-2.9
			l2.5-0.1v-0.8c0-0.9-0.6-1.5-1.8-1.5c-1,0-1.7,0.3-1.9,1h-2c0.2-1.7,1.8-2.8,4-2.8c2.5,0,3.8,1.2,3.8,3.2v6.5h-2.1v-1.3h-0.1
			C175.1,30.5,174.1,31,172.8,31z M181.2,34.3c-0.1,0-0.7,0-0.9,0v-1.8c0.1,0,0.4,0,0.6,0c0.9,0,1.4-0.4,1.7-1.2l0.1-0.4l-3.4-9.6
			h2.4l2.2,7.4h0.1l2.2-7.4h2.3l-3.4,9.8C184.4,33.5,183.4,34.3,181.2,34.3z M198.3,30.9V20.5h-0.1l-3.1,2.2v-2.2l3.3-2.3h2.2v12.6
			H198.3L198.3,30.9z M208.5,31.2c-2.3,0-4.1-1.4-4.4-3.4h2.2c0.3,1,1.1,1.5,2.2,1.5c1.8,0,2.9-1.7,2.9-4.6h-0.1
			c-0.6,1.2-1.8,1.9-3.3,1.9c-2.4,0-4.1-1.8-4.1-4.2c0-2.6,1.9-4.4,4.7-4.4c1.8,0,3.3,0.9,4.1,2.5c0.6,1,0.9,2.4,0.9,4
			C213.6,28.7,211.7,31.2,208.5,31.2L208.5,31.2z M208.6,24.8c1.4,0,2.5-1,2.5-2.4c0-1.4-1.1-2.5-2.5-2.5c-1.4,0-2.5,1.1-2.5,2.5
			C206.1,23.8,207.2,24.8,208.6,24.8L208.6,24.8z M223.3,30.9H221V18.3h8v1.9h-5.8v3.7h5.3v1.9h-5.3L223.3,30.9L223.3,30.9z
			 M235.3,22.8c-1.3,0-2.2,0.9-2.3,2.3h4.5C237.5,23.7,236.6,22.8,235.3,22.8z M237.5,28.2h2c-0.4,1.7-2,2.8-4.2,2.8
			c-2.8,0-4.5-1.9-4.5-4.9c0-3.1,1.7-5,4.5-5c2.7,0,4.4,1.8,4.4,4.8v0.7H233v0.1c0.1,1.6,1,2.6,2.4,2.6
			C236.5,29.3,237.2,28.9,237.5,28.2z M247.2,31c-1.3,0-2.4-0.6-3-1.7H244v1.5h-2.1V17.6h2.2v5.2h0.1c0.5-1,1.6-1.7,2.9-1.7
			c2.4,0,3.9,1.9,3.9,4.9C251.1,29.1,249.6,31,247.2,31L247.2,31z M246.5,23c-1.5,0-2.4,1.2-2.4,3.1c0,1.9,0.9,3.1,2.4,3.1
			c1.5,0,2.4-1.2,2.4-3.1C248.8,24.2,247.9,23,246.5,23z M257.9,22c0-2.4,1.8-4,4.4-4c2.5,0,4.3,1.5,4.3,3.6c0,1.4-0.7,2.5-2.8,4.6
			l-2.6,2.6v0.1h5.7v1.9H258v-1.6l4.2-4.3c1.7-1.7,2.1-2.4,2.1-3.3c0-1.1-0.9-1.9-2.1-1.9c-1.3,0-2.2,0.9-2.2,2.1v0L257.9,22
			L257.9,22L257.9,22z M273.9,31.2c-3,0-4.8-2.4-4.8-6.6c0-4.2,1.8-6.6,4.8-6.6c3,0,4.8,2.4,4.8,6.6
			C278.6,28.7,276.9,31.2,273.9,31.2z M273.9,29.3c1.6,0,2.5-1.7,2.5-4.8c0-3.1-0.9-4.7-2.5-4.7c-1.6,0-2.5,1.6-2.5,4.7
			C271.3,27.6,272.3,29.3,273.9,29.3L273.9,29.3z M284.1,30.9V20.5H284l-3.1,2.2v-2.2l3.3-2.3h2.2v12.6H284.1z M294.6,31.2
			c-2.9,0-4.9-1.5-4.9-3.7c0-1.6,1.1-2.9,2.7-3.2v-0.1c-1.3-0.3-2.2-1.4-2.2-2.8c0-2,1.8-3.4,4.4-3.4c2.6,0,4.4,1.4,4.4,3.4
			c0,1.4-0.9,2.4-2.2,2.8v0.1c1.6,0.3,2.7,1.6,2.7,3.2C299.5,29.7,297.6,31.2,294.6,31.2L294.6,31.2z M294.7,29.4
			c1.5,0,2.6-0.9,2.6-2.1c0-1.3-1-2.1-2.6-2.1c-1.5,0-2.6,0.9-2.6,2.1C292.1,28.6,293.1,29.4,294.7,29.4z M294.7,23.5
			c1.3,0,2.2-0.8,2.2-1.9c0-1.1-0.9-1.9-2.2-1.9c-1.3,0-2.2,0.8-2.2,1.9C292.5,22.7,293.4,23.5,294.7,23.5z"/>
		<g transform="translate(12 44)">
			<path class="st11" d="M113.4,22.6h11.9c3.3,0,6,2.7,6,6v11.9c0,3.3-2.7,6-6,6h-11.9c-3.3,0-6-2.7-6-6V28.5
				C107.4,25.2,110.1,22.6,113.4,22.6z"/>
			<path class="st8" d="M149.2,27.8h4.9c2.5,0,4.2,1.7,4.2,4.2c0,2.5-1.7,4.2-4.2,4.2h-2.9v4.2h-2L149.2,27.8L149.2,27.8z
				 M151.1,29.6v4.9h2.5c1.7,0,2.7-0.9,2.7-2.4c0-1.6-0.9-2.5-2.7-2.5C153.6,29.6,151.1,29.6,151.1,29.6z M164.3,39
				c1.6,0,2.5-1.2,2.5-3.3c0-2.1-0.9-3.3-2.5-3.3c-1.6,0-2.5,1.2-2.5,3.3C161.7,37.8,162.7,39,164.3,39L164.3,39z M164.3,40.6
				c-2.8,0-4.5-1.9-4.5-4.9c0-3.1,1.7-4.9,4.5-4.9c2.8,0,4.5,1.9,4.5,4.9C168.8,38.8,167.1,40.6,164.3,40.6z M170.8,33.6
				c0-1.7,1.5-2.9,3.7-2.9c2.1,0,3.5,1,3.7,2.7h-1.8c-0.2-0.7-0.9-1.1-1.9-1.1c-1,0-1.8,0.5-1.8,1.2c0,0.6,0.5,0.9,1.5,1.2l1.6,0.4
				c1.8,0.4,2.7,1.2,2.7,2.6c0,1.8-1.7,3-3.9,3c-2.3,0-3.7-1-3.9-2.7h1.9c0.2,0.7,0.9,1.2,2.1,1.2c1.2,0,2-0.5,2-1.3
				c0-0.6-0.4-0.9-1.4-1.2l-1.7-0.4C171.6,35.8,170.8,35,170.8,33.6L170.8,33.6z M180.7,40.4v-9.5h1.9v9.5H180.7L180.7,40.4z
				 M181.6,29.3c-0.7,0-1.2-0.5-1.2-1.1c0-0.7,0.5-1.2,1.2-1.2c0.7,0,1.2,0.5,1.2,1.2C182.8,28.8,182.3,29.3,181.6,29.3z M186,28.6
				h1.9V31h2.1v1.6h-2.1v4.9c0,1,0.4,1.4,1.3,1.4c0.3,0,0.4,0,0.7,0v1.6c-0.3,0.1-0.7,0.1-1,0.1c-2.1,0-2.9-0.7-2.9-2.6v-5.4h-1.6
				V31h1.6L186,28.6L186,28.6z M192.1,40.4v-9.5h1.9v9.5H192.1z M193.1,29.3c-0.7,0-1.2-0.5-1.2-1.1c0-0.7,0.5-1.2,1.2-1.2
				c0.7,0,1.2,0.5,1.2,1.2C194.3,28.8,193.8,29.3,193.1,29.3z M195.9,30.9h2l2.4,7.5h0.1l2.4-7.5h2l-3.4,9.5h-2L195.9,30.9
				L195.9,30.9z M210.2,32.3c-1.4,0-2.4,1-2.5,2.5h4.8C212.5,33.3,211.6,32.3,210.2,32.3z M212.5,37.9h1.8c-0.4,1.7-1.9,2.7-4.1,2.7
				c-2.7,0-4.4-1.9-4.4-4.9c0-3,1.7-5,4.4-5c2.6,0,4.2,1.8,4.2,4.8v0.7h-6.7v0.1c0.1,1.7,1,2.7,2.5,2.7
				C211.4,39,212.2,38.6,212.5,37.9L212.5,37.9z"/>
		</g>
		<g transform="translate(12 72)">
			<path class="st12" d="M113.4,36.2h11.9c3.3,0,6,2.7,6,6v11.9c0,3.3-2.7,6-6,6h-11.9c-3.3,0-6-2.7-6-6V42.2
				C107.4,38.9,110.1,36.2,113.4,36.2z"/>
			<path class="st8" d="M151.1,54.1h-2V41.5h7.9v1.8h-5.9v3.9h5.4v1.7h-5.4C151.1,48.9,151.1,54.1,151.1,54.1z M163.2,46
				c-1.4,0-2.4,1-2.5,2.5h4.8C165.5,47,164.6,46,163.2,46z M165.6,51.5h1.8c-0.4,1.7-1.9,2.7-4.1,2.7c-2.7,0-4.4-1.9-4.4-4.9
				c0-3,1.7-5,4.4-5c2.6,0,4.2,1.8,4.2,4.8v0.7h-6.7V50c0.1,1.7,1,2.7,2.5,2.7C164.4,52.7,165.2,52.3,165.6,51.5L165.6,51.5z
				 M172.8,52.7c1.4,0,2.5-0.9,2.5-2.1v-0.8L173,50c-1.3,0.1-1.9,0.5-1.9,1.4C171.1,52.2,171.8,52.7,172.8,52.7z M172.4,54.3
				c-1.8,0-3.2-1.1-3.2-2.8c0-1.7,1.3-2.7,3.5-2.8l2.6-0.1v-0.8c0-1-0.7-1.6-1.9-1.6c-1,0-1.8,0.4-2,1.1h-1.8
				c0.2-1.6,1.7-2.7,3.9-2.7c2.4,0,3.7,1.2,3.7,3.2v6.5h-1.8v-1.3h-0.1C174.6,53.7,173.6,54.3,172.4,54.3z M180.5,42.3h1.9v2.3h2.1
				v1.6h-2.1v4.9c0,1,0.4,1.4,1.3,1.4c0.3,0,0.4,0,0.7,0v1.6c-0.3,0.1-0.7,0.1-1,0.1c-2.1,0-2.9-0.7-2.9-2.6v-5.4h-1.6v-1.6h1.6
				L180.5,42.3L180.5,42.3z M194.8,44.6v9.5H193v-1.5h-0.1c-0.5,1.1-1.5,1.7-3,1.7c-2.1,0-3.4-1.3-3.4-3.5v-6.1h1.9v5.7
				c0,1.5,0.7,2.3,2.1,2.3c1.5,0,2.4-0.9,2.4-2.4v-5.6C192.9,44.6,194.8,44.6,194.8,44.6z M197.5,54.1v-9.5h1.8v1.5h0.1
				c0.3-0.9,1.3-1.6,2.6-1.6c0.3,0,0.6,0,0.8,0.1v1.9c-0.1-0.1-0.7-0.1-1-0.1c-1.4,0-2.4,0.9-2.4,2.2v5.6
				C199.4,54.1,197.5,54.1,197.5,54.1z M208.3,46c-1.4,0-2.4,1-2.5,2.5h4.8C210.6,47,209.7,46,208.3,46L208.3,46z M210.7,51.5h1.8
				c-0.4,1.7-1.9,2.7-4.1,2.7c-2.7,0-4.4-1.9-4.4-4.9c0-3,1.7-5,4.4-5c2.6,0,4.2,1.8,4.2,4.8v0.7h-6.7V50c0.1,1.7,1,2.7,2.5,2.7
				C209.5,52.7,210.3,52.3,210.7,51.5L210.7,51.5z M219.7,54.1v-9.5h1.8v1.5h0.1c0.3-0.9,1.3-1.6,2.6-1.6c0.3,0,0.6,0,0.8,0.1v1.9
				c-0.1-0.1-0.7-0.1-1-0.1c-1.4,0-2.4,0.9-2.4,2.2v5.6H219.7z M230.5,46c-1.4,0-2.4,1-2.5,2.5h4.8C232.8,47,231.9,46,230.5,46z
				 M232.8,51.5h1.8c-0.4,1.7-1.9,2.7-4.1,2.7c-2.7,0-4.4-1.9-4.4-4.9c0-3,1.7-5,4.4-5c2.6,0,4.2,1.8,4.2,4.8v0.7H228V50
				c0.1,1.7,1,2.7,2.5,2.7C231.7,52.7,232.5,52.3,232.8,51.5L232.8,51.5z M240.5,44.4c1.3,0,2.4,0.7,3,1.7h0.1v-1.6h1.8v12.6h-1.9
				v-4.5h-0.1c-0.6,1-1.6,1.6-2.9,1.6c-2.4,0-3.9-1.9-3.9-4.9C236.5,46.4,238.1,44.4,240.5,44.4L240.5,44.4z M241,52.6
				c1.6,0,2.6-1.2,2.6-3.2c0-2-1-3.2-2.6-3.2s-2.5,1.2-2.5,3.2C238.5,51.4,239.4,52.6,241,52.6L241,52.6z M256.3,44.6v9.5h-1.8v-1.5
				h-0.1c-0.5,1.1-1.5,1.7-3,1.7c-2.1,0-3.4-1.3-3.4-3.5v-6.1h1.9v5.7c0,1.5,0.7,2.3,2.1,2.3c1.5,0,2.4-0.9,2.4-2.4v-5.6H256.3
				L256.3,44.6z M262.9,46c-1.4,0-2.4,1-2.5,2.5h4.8C265.2,47,264.3,46,262.9,46L262.9,46z M265.3,51.5h1.8
				c-0.4,1.7-1.9,2.7-4.1,2.7c-2.7,0-4.4-1.9-4.4-4.9c0-3,1.7-5,4.4-5c2.6,0,4.2,1.8,4.2,4.8v0.7h-6.7V50c0.1,1.7,1,2.7,2.5,2.7
				C264.1,52.7,264.9,52.3,265.3,51.5z M269.2,47.3c0-1.7,1.5-2.9,3.7-2.9c2.1,0,3.5,1,3.7,2.7h-1.8c-0.2-0.7-0.9-1.1-1.9-1.1
				c-1,0-1.8,0.5-1.8,1.2c0,0.6,0.5,0.9,1.5,1.2l1.6,0.4c1.8,0.4,2.7,1.2,2.7,2.6c0,1.8-1.7,3-3.9,3c-2.3,0-3.7-1-3.9-2.7h1.9
				c0.2,0.7,0.9,1.2,2.1,1.2c1.2,0,2-0.5,2-1.3c0-0.6-0.4-0.9-1.4-1.2l-1.7-0.4C270,49.5,269.2,48.7,269.2,47.3L269.2,47.3z
				 M279.6,42.3h1.9v2.3h2.1v1.6h-2.1v4.9c0,1,0.4,1.4,1.3,1.4c0.3,0,0.4,0,0.7,0v1.6c-0.3,0.1-0.7,0.1-1,0.1
				c-2.1,0-2.9-0.7-2.9-2.6v-5.4h-1.6v-1.6h1.6V42.3L279.6,42.3z M285.4,47.3c0-1.7,1.5-2.9,3.7-2.9c2.1,0,3.5,1,3.7,2.7H291
				c-0.2-0.7-0.9-1.1-1.9-1.1c-1,0-1.8,0.5-1.8,1.2c0,0.6,0.5,0.9,1.5,1.2l1.6,0.4c1.8,0.4,2.7,1.2,2.7,2.6c0,1.8-1.7,3-3.9,3
				c-2.3,0-3.7-1-3.9-2.7h1.9c0.2,0.7,0.9,1.2,2.1,1.2c1.2,0,2-0.5,2-1.3c0-0.6-0.4-0.9-1.4-1.2l-1.7-0.4
				C286.3,49.5,285.4,48.7,285.4,47.3z"/>
		</g>
		<g transform="translate(12 100)">
			<path class="st13" d="M113.4,49.9h11.9c3.3,0,6,2.7,6,6v11.9c0,3.3-2.7,6-6,6h-11.9c-3.3,0-6-2.7-6-6V55.9
				C107.4,52.6,110.1,49.9,113.4,49.9z"/>
			<path class="st8" d="M151.2,55.2v8.1c0,1.8,1.1,3,3.1,3c2,0,3.1-1.2,3.1-3v-8.1h2v8.2c0,2.7-1.9,4.6-5.1,4.6
				c-3.2,0-5.1-1.9-5.1-4.6v-8.2C149.2,55.2,151.2,55.2,151.2,55.2z M162.1,61c0-1.7,1.5-2.9,3.7-2.9c2.1,0,3.5,1,3.7,2.7h-1.8
				c-0.2-0.7-0.9-1.1-1.9-1.1c-1,0-1.8,0.5-1.8,1.2c0,0.6,0.5,0.9,1.5,1.2l1.6,0.4c1.8,0.4,2.7,1.2,2.7,2.6c0,1.8-1.7,3-3.9,3
				c-2.3,0-3.7-1-3.9-2.7h1.9c0.2,0.7,0.9,1.2,2.1,1.2c1.2,0,2-0.5,2-1.3c0-0.6-0.4-0.9-1.4-1.2l-1.7-0.4
				C163,63.2,162.1,62.4,162.1,61z M175.1,66.3c1.4,0,2.5-0.9,2.5-2.1v-0.8l-2.3,0.1c-1.3,0.1-1.9,0.5-1.9,1.4
				C173.3,65.9,174.1,66.4,175.1,66.3L175.1,66.3z M174.6,67.9c-1.8,0-3.2-1.1-3.2-2.8c0-1.7,1.3-2.7,3.5-2.8l2.6-0.1v-0.8
				c0-1-0.7-1.6-1.9-1.6c-1,0-1.8,0.4-2,1.1h-1.8c0.2-1.6,1.7-2.7,3.9-2.7c2.4,0,3.7,1.2,3.7,3.2v6.5h-1.8v-1.3h-0.1
				C176.9,67.4,175.9,67.9,174.6,67.9z M187.1,67.9c-1.3,0-2.4-0.6-3-1.7H184v1.5h-1.8V54.6h1.9v5.2h0.1c0.5-1,1.6-1.7,2.9-1.7
				c2.4,0,3.9,1.9,3.9,4.9C191,66,189.5,67.9,187.1,67.9z M186.6,59.8c-1.6,0-2.6,1.2-2.6,3.2c0,2,1,3.2,2.6,3.2
				c1.6,0,2.5-1.2,2.5-3.2C189.1,61,188.2,59.8,186.6,59.8z M193.3,67.8v-9.5h1.9v9.5H193.3z M194.3,56.6c-0.7,0-1.2-0.5-1.2-1.1
				c0-0.7,0.5-1.2,1.2-1.2c0.7,0,1.2,0.5,1.2,1.2C195.5,56.1,195,56.6,194.3,56.6z M198,67.8V54.6h1.9v13.2H198z M202.7,67.8v-9.5
				h1.9v9.5H202.7z M203.7,56.6c-0.7,0-1.2-0.5-1.2-1.1c0-0.7,0.5-1.2,1.2-1.2c0.7,0,1.2,0.5,1.2,1.2
				C204.9,56.1,204.4,56.6,203.7,56.6z M208,56h1.9v2.3h2.1v1.6h-2.1v4.9c0,1,0.4,1.4,1.3,1.4c0.3,0,0.4,0,0.7,0v1.6
				c-0.3,0.1-0.7,0.1-1,0.1c-2.1,0-2.9-0.7-2.9-2.6v-5.4h-1.6v-1.6h1.6L208,56L208,56z M215.1,71.2c-0.2,0-0.6,0-0.8,0v-1.6
				c0.1,0,0.4,0,0.6,0c0.9,0,1.4-0.4,1.7-1.3l0.1-0.5l-3.4-9.5h2l2.4,7.5h0.1l2.4-7.5h2l-3.5,9.9C217.9,70.5,217,71.2,215.1,71.2
				L215.1,71.2z"/>
		</g>
	</g>
</g>
</svg>
