<?xml version="1.0" encoding="UTF-8"?>
<svg width="25px" height="13px" viewBox="0 0 25 13" version="1.1" xmlns="http://www.w3.org/2000/svg" xmlns:xlink="http://www.w3.org/1999/xlink">
    <title>Group Copy</title>
    <g id="Page-1" stroke="none" stroke-width="1" fill="none" fill-rule="evenodd">
        <g id="Group-Copy" transform="translate(-0.001275, 0.000000)" fill="#000000" fill-rule="nonzero">
            <path d="M23.4547905,2.08852007 C23.3383697,1.94387594 23.2113651,1.80981553 23.102,1.67222722 C23.0951162,1.70360526 23.0951162,1.73610262 23.102,1.76748066 C23.1389039,2.0104646 23.1601152,2.25557366 23.1655023,2.50128501 C23.1339639,3.30126612 22.8650059,4.07375277 22.392891,4.72033758 C22.2058699,4.99601739 21.9773905,5.24115674 21.7155331,5.44708612 C21.6943657,5.44708612 21.6555587,5.48942099 21.6379192,5.47883727 C21.5690308,5.44678371 21.502946,5.40902093 21.4403565,5.36594429 C21.8102736,4.72321029 21.8885548,3.95323115 21.6555587,3.24920098 C21.5885285,3.34798234 21.532082,3.43617997 21.4685797,3.5137939 C21.1107844,3.96183765 20.6410271,4.30746226 20.1068082,4.51571906 C20.0752301,4.52904868 20.0396049,4.52904868 20.0080268,4.51571906 L17.6443301,3.05163827 C17.6102477,3.02842355 17.5862813,2.99310454 17.5772999,2.95285692 C17.4573512,2.45189434 17.3479861,1.95093175 17.1821745,1.46055288 C17.1010327,1.22771112 17.0304746,0.987813545 16.9528607,0.737332253 L9.78415665,12.1077717 L13.4637621,12.1077717 C13.5045202,12.1032777 13.5428068,12.085987 13.5731272,12.0583811 C13.9964758,11.6667835 14.4127687,11.2716581 14.8396453,10.8871164 C15.4146939,10.3614585 16.0003262,9.8463843 16.5789027,9.32425429 C16.6329257,9.26881723 16.71473,9.25079257 16.7870491,9.27839151 C17.7458655,9.55847769 18.728409,9.74979025 19.7222665,9.84991221 C20.2551268,9.90586989 20.7932402,9.88567579 21.3204077,9.78993781 C21.7372094,9.72664803 22.1222178,9.52981096 22.4175863,9.22900084 C23.0487599,8.51972909 23.5653488,7.71627869 23.9486973,6.84766461 C24.3111042,6.00350952 24.4331941,5.07562639 24.3014879,4.16645642 C24.2221009,3.4075123 23.928438,2.68681474 23.4547905,2.08852007 Z M19.14369,6.67479728 C18.856723,6.67470755 18.5983971,6.50082681 18.4903012,6.2349973 C18.3822054,5.96916779 18.4458759,5.66435169 18.6513443,5.46402 C18.8568127,5.26368831 19.1631427,5.20775385 19.4261509,5.32254388 C19.6891591,5.4373339 19.8564453,5.69997837 19.8492711,5.98685566 C19.8396987,6.36963169 19.5265857,6.67491691 19.14369,6.67479728 L19.14369,6.67479728 Z" id="Shape"></path>
            <path d="M12.3348323,6.00096729 C12.9117867,4.64603858 13.2047577,3.18718729 13.1956413,1.71456208 C13.1956413,1.65105978 13.167418,1.63342026 13.1180274,1.61225282 L9.53014746,0.0282232441 L9.45958935,0.00352790552 L8.58819668,2.86465928 L8.57055716,2.86465928 C8.2812689,1.91212479 7.99550856,0.959590301 7.7026924,-8.8817842e-16 L7.642718,0.0211674331 L4.03367066,1.61578073 C3.98645128,1.62947408 3.95741136,1.676855 3.96664045,1.7251458 C3.97238373,2.65911303 4.09083723,3.58897299 4.31943101,4.49455163 C4.5683838,5.54492412 5.0188815,6.53697758 5.64592348,7.4156574 C6.33944056,8.39687064 7.34183945,9.11730603 8.49294323,9.4618426 C8.55090043,9.47590856 8.61138131,9.47590856 8.66933851,9.4618426 C9.3846182,9.25504082 10.0457836,8.89374825 10.6061586,8.40347094 C11.3559067,7.74299174 11.9468279,6.92173187 12.3348323,6.00096729 Z" id="Path"></path>
            <path d="M2.48492014,4.38871446 C2.46022318,4.34686051 2.41327269,4.32338526 2.36497135,4.32874007 L0.00127465137,4.32874007 C-0.00042488379,4.34280052 -0.00042488379,4.35701449 0.00127465137,4.37107494 C0.0108881475,4.40128784 0.0226787182,4.43076427 0.0365537066,4.45927258 C0.168247023,4.71158717 0.352268051,4.93289351 0.576323251,5.10840719 C0.971443016,5.43096957 1.41261388,5.69258033 1.8851762,5.8845464 C1.94162269,5.90924174 1.95926221,5.93393708 1.9486785,5.99743938 C1.90281573,6.32553459 1.86048086,6.65715771 1.81814599,6.98525293 C1.70525302,7.82489444 1.59588795,8.66453595 1.48299497,9.50417747 L1.19723462,11.6456161 C1.17606719,11.7937881 1.15842766,11.9419602 1.13726023,12.0972394 L4.33354263,12.0972394 C4.37910176,12.0985182 4.42147839,12.0739124 4.4429077,12.0336857 C4.86625636,11.3939589 5.29078099,10.755408 5.71648159,10.118033 L5.96343498,9.74054714 L5.92815592,9.68057274 C4.78511453,7.91191611 3.63736927,6.14796335 2.48492014,4.38871446 Z" id="Path"></path>
        </g>
    </g>
</svg>