<svg id="Layer_1" data-name="Layer 1" xmlns="http://www.w3.org/2000/svg" viewBox="0 0 37.22 52.05"><defs><style>.cls-1{fill:#22cefa;}.cls-1,.cls-2{stroke:#3566e7;stroke-linecap:round;stroke-linejoin:round;stroke-width:1.97px;}.cls-2{fill:none;}</style></defs><title>castle</title><path class="cls-1" d="M11.75,50.74V40.57a6.86,6.86,0,0,1,13.72,0V50.74"/><path class="cls-2" d="M29.54,22.44s0-.07,0-.1V17.72a2,2,0,0,1,1.95-1.95h2.81a1.94,1.94,0,0,1,1.94,1.95v4.62a.38.38,0,0,1,0,.1h0V51.06H1V22.44H1s0-.07,0-.1V17.72a1.94,1.94,0,0,1,1.94-1.95H5.75a1.94,1.94,0,0,1,1.94,1.95v4.62s0,.06,0,.1h7.84s0-.07,0-.1V17.72a1.94,1.94,0,0,1,1.94-1.95h2.32a1.94,1.94,0,0,1,1.94,1.95v4.62s0,.06,0,.1Z"/><polygon class="cls-2" points="18.61 0.99 28.15 5.4 18.61 9.91 18.61 0.99"/></svg>