<svg id="Layer_1" data-name="Layer 1" xmlns="http://www.w3.org/2000/svg" viewBox="0 0 611.66711 205.73537"><defs><style>.cls-1{fill:#436db4;}.cls-2{fill:#26becd;}.cls-3{fill:none;}.cls-4{fill:#fff;}</style></defs><title>curie</title><path class="cls-1" d="M180.61928,105.94724V96.58492q0-13.998,6.957-21.08885,6.95657-7.09131,19.67969-7.09131,11.44338,0,18.0332,5.37645,6.59032,5.37671,6.59082,15.01758v.46289h-8.33006v-.37109q0-6.20949-4.25586-9.54737-4.25684-3.33692-12.12891-3.33691-9.24609,0-13.73047,5.09814-4.48533,5.09766-4.48535,15.94434V106.04q0,10.4751,4.53027,15.48047,4.53223,5.00538,13.77637,5.00586,7.87353,0,12.083-3.33691,4.21146-3.33836,4.21094-9.64063v-.37109h8.23828v.46387q0,9.64012-6.63574,15.0625-6.63718,5.42286-18.0791,5.42285-12.63279,0-19.543-7.09082Q180.61928,119.94483,180.61928,105.94724Z"/><path class="cls-1" d="M241.85664,114.47556V85.832h7.78125v27.80958q0,13.25539,12.26563,13.25488,6.31641,0,9.291-3.29,2.9751-3.29151,2.97461-9.96484V85.832h7.78125v28.64356q0,9.36183-5.17187,14.41407-5.17236,5.05224-14.9668,5.05176-9.70312,0-14.8291-5.05176Q241.85709,123.83738,241.85664,114.47556Z"/><path class="cls-1" d="M300.34877,85.832v6.67385a14.73836,14.73836,0,0,1,6.22461-5.51464,20.19707,20.19707,0,0,1,8.69629-1.80761,23.79868,23.79868,0,0,1,3.75293.27734v7.50879a17.7517,17.7517,0,0,0-5.126-.74121,13.18011,13.18011,0,0,0-9.749,3.707q-3.70752,3.709-3.707,10.01172v27.34569h-7.78125V85.832Z"/><path class="cls-1" d="M334.12611,69.42478v8.52784h-7.78125V69.42478Zm0,16.40722V133.293h-7.78125V85.832Z"/><path class="cls-1" d="M351.97572,111.87985q0,15.38818,14.1875,15.38769,5.40084,0,8.376-2.54883a8.39927,8.39927,0,0,0,3.06641-6.44238V117.998h7.68945v.37109a14.91511,14.91511,0,0,1-2.42578,8.01758,16.03224,16.03224,0,0,1-6.68262,5.65528,23.3751,23.3751,0,0,1-10.20605,2.085q-10.25244,0-16.01953-5.793-5.76562-5.79345-5.76661-16.918v-3.79981q0-10.93946,5.49219-16.82519,5.49316-5.88573,15.28711-5.88574,9.61085,0,15.10352,5.42285,5.4917,5.42284,5.49218,15.61914v5.56153H351.97572Zm0-6.30371H377.7892v-.834q0-6.48926-3.3418-9.68653-3.33989-3.19776-9.47363-3.19825-5.95025,0-9.291,3.38379Q352.3414,98.6235,351.97572,105.57614Z"/><path class="cls-2" d="M406.98842,82.21677V85.832h11.7168v5.93261h-11.7168v41.52832h-7.78027V91.76462h-6.59083V85.832h6.59083V82.49509q-.00006-6.39624,3.57031-9.77979,3.56977-3.38305,10.34375-3.3833h5.583v5.83985h-4.30176q-3.84527,0-5.62989,1.71484Q406.98935,78.60129,406.98842,82.21677Z"/><path class="cls-2" d="M432.16322,111.87985q0,15.38818,14.1875,15.38769,5.40084,0,8.376-2.54883a8.39927,8.39927,0,0,0,3.06641-6.44238V117.998h7.68945v.37109a14.91511,14.91511,0,0,1-2.42578,8.01758,16.03224,16.03224,0,0,1-6.68262,5.65528,23.3751,23.3751,0,0,1-10.20605,2.085q-10.25244,0-16.01953-5.793-5.76562-5.79345-5.76661-16.918v-3.79981q0-10.93946,5.49219-16.82519,5.49316-5.88573,15.28711-5.88574,9.61085,0,15.10352,5.42285,5.4917,5.42284,5.49218,15.61914v5.56153H432.16322Zm0-6.30371H457.9767v-.834q0-6.48926-3.3418-9.68653-3.33989-3.19776-9.47363-3.19825-5.95025,0-9.291,3.38379Q432.5289,98.6235,432.16322,105.57614Z"/><path class="cls-2" d="M482.87416,85.832v6.39649a15.72622,15.72622,0,0,1,6.31641-5.1914,20.42513,20.42513,0,0,1,8.60449-1.76172q8.32909,0,12.90625,4.82031,4.57764,4.8208,4.57715,13.34864V133.293h-7.78125v-28.8291q0-6.0249-2.97461-9.084-2.9751-3.05858-8.65039-3.05858a12.68464,12.68464,0,0,0-9.38281,3.52246q-3.523,3.52149-3.52344,9.63965V133.293h-7.78125V85.832Z"/><path class="cls-2" d="M523.60854,119.11032V118.832h7.41412v.18554a7.02928,7.02928,0,0,0,3.1123,6.02539q3.1128,2.2251,9.61133,2.22461,5.85938,0,9.2002-1.94629a6.18786,6.18786,0,0,0,3.34082-5.65527,5.17687,5.17687,0,0,0-2.42578-4.63477q-2.42579-1.5747-7.73438-2.13183l-6.68262-.834q-7.78125-.92722-11.44238-4.03223-3.66064-3.10547-3.66113-8.75976a12.10816,12.10816,0,0,1,5.126-10.33593q5.12549-3.7544,13.91308-3.7539,9.15381,0,14.37207,3.79979a12.07307,12.07307,0,0,1,5.21777,10.29v.37011h-7.415v-.27735a6.438,6.438,0,0,0-3.15821-5.79394q-3.15819-1.99365-8.9248-1.99317-5.8579,0-8.78711,1.8545a5.90132,5.90132,0,0,0-2.92969,5.2832,5.20588,5.20588,0,0,0,2.10547,4.4961q2.105,1.52929,7.23145,2.08594l7.13964.92675q7.87354.92726,11.67188,4.07812,3.79834,3.15236,3.79785,8.89942a12.462,12.462,0,0,1-5.44629,10.79882q-5.44629,3.84669-14.875,3.84765-9.33544,0-14.55371-3.94043A12.79283,12.79283,0,0,1,523.60854,119.11032Z"/><path class="cls-2" d="M578.07338,111.87985q0,15.38818,14.1875,15.38769,5.40089,0,8.376-2.54883a8.39922,8.39922,0,0,0,3.0664-6.44238V117.998h7.68946v.37109a14.91512,14.91512,0,0,1-2.42579,8.01758,16.032,16.032,0,0,1-6.68261,5.65528,23.37514,23.37514,0,0,1-10.20606,2.085q-10.25244,0-16.01953-5.793-5.76562-5.79345-5.7666-16.918v-3.79981q0-10.93946,5.49219-16.82519,5.49316-5.88573,15.28711-5.88574,9.61083,0,15.10351,5.42285,5.49169,5.42284,5.49219,15.61914v5.56153H578.07338Zm0-6.30371h25.81348v-.834q0-6.48926-3.3418-9.68653-3.33984-3.19776-9.47363-3.19825-5.9502,0-9.291,3.38379Q578.4391,98.6235,578.07338,105.57614Z"/><path class="cls-1" d="M85.43129,0V198.44184c44.86288-22.32769,75.45673-60.04449,75.45673-94.7347V45.65891Z"/><path class="cls-2" d="M0,52.95243v58.04824c0,34.6902,30.59407,72.407,75.45673,94.73471V17.08072Z"/><path class="cls-3" d="M94.75008,95.46353a4.70474,4.70474,0,1,0,4.7033,4.70617v-.006A4.71319,4.71319,0,0,0,94.75008,95.46353Z"/><path class="cls-4" d="M130.05006,114.424a13.99217,13.99217,0,0,0,1.2204-1.80225c-.36731.57361-.7926,1.19574-1.25928,1.84961C130.02388,114.455,130.03737,114.44052,130.05006,114.424Z"/><path class="cls-4" d="M127.46034,63.81278c3.83527,22.475-13.65046,27.958-13.65046,27.958s.12548-.185.317-.52771a14.65284,14.65284,0,0,0-.802-15.57434c-4.08013,8.078-7.0794,9.80224-11.58691,10.77021L75.49025,75.03916V59.75351l-49.4718,83.48634H42.65053l31.18451-14.33L98.009,131.44831c8.22406.77332,21.81305-3.81335,32.00219-16.97693.46668-.65387.892-1.276,1.25928-1.84961a18.703,18.703,0,0,0,1.54187-2.79412l.0064.01159.05755-.12964s1.373-2.58991,1.75684-3.48664C139.45772,94.869,140.49373,75.8815,127.46034,63.81278ZM94.75008,104.86807a4.69887,4.69887,0,1,1,4.49011-3.29956A4.69892,4.69892,0,0,1,94.75008,104.86807Z"/></svg>